<?xml version="1.0" encoding="utf-8"?>
<!-- Generator: Adobe Illustrator 27.5.0, SVG Export Plug-In . SVG Version: 6.00 Build 0)  -->
<svg version="1.1" xmlns="http://www.w3.org/2000/svg" xmlns:xlink="http://www.w3.org/1999/xlink" x="0px" y="0px"
	 viewBox="0 0 3710 3710" style="enable-background:new 0 0 3710 3710;" xml:space="preserve">
<g id="Background">
	<g>
		<g>
			<rect style="fill:#FFFFFF;" width="3710" height="3710"/>
		</g>
	</g>
</g>
<g id="Illustration">
	<g>
		<linearGradient id="SVGID_1_" gradientUnits="userSpaceOnUse" x1="3599.9246" y1="4041.7769" x2="1109.6406" y2="949.0005">
			<stop  offset="0" style="stop-color:#B37CFF"/>
			<stop  offset="1" style="stop-color:#F895E7"/>
		</linearGradient>
		<path style="opacity:0.3;fill:url(#SVGID_1_);" d="M2922.52,2816.761c-57.622,59.927-112.144,98.574-155.221,129.108
			c-506.356,358.916-1105.509,254.293-1232.847,228.744c-188.037-37.729-551.508-110.657-814.291-415.942
			c-397.569-461.87-335.661-1189.533-27.28-1669.874c56.408-87.863,354.37-575.52,959.977-653.724
			c366.507-47.329,793.736,48.128,1103.123,304.193C3405.414,1276.771,3359.181,2362.626,2922.52,2816.761z"/>
		<g>
			<g>
				
					<linearGradient id="SVGID_00000062873071800662569150000009929408361211515010_" gradientUnits="userSpaceOnUse" x1="-3189.7605" y1="1494.2115" x2="-4616.9165" y2="3022.2783" gradientTransform="matrix(-0.9993 -0.0377 -0.0377 0.9993 -2113.9397 676.2507)">
					<stop  offset="0" style="stop-color:#B37CFF"/>
					<stop  offset="1" style="stop-color:#F895E7"/>
				</linearGradient>
				<path style="opacity:0.81;fill:url(#SVGID_00000062873071800662569150000009929408361211515010_);" d="M1598.47,2989.26
					c-17.711-319.187-136.084-610.355-556.333-817.5C1042.138,2171.761,976.911,2954.749,1598.47,2989.26z"/>
				<path style="opacity:0.51;fill:#FFFFFF;" d="M1483.069,2850.697c-0.852,0-1.704-0.32-2.361-0.961
					c-237.7-231.99-386.211-572.338-387.682-575.749c-0.741-1.714,0.05-3.705,1.763-4.445c1.712-0.746,3.705,0.05,4.445,1.763
					c1.468,3.398,149.474,342.553,386.196,573.59c1.337,1.304,1.364,3.447,0.059,4.781
					C1484.826,2850.357,1483.947,2850.697,1483.069,2850.697z"/>
			</g>
			<g>
				
					<linearGradient id="SVGID_00000044888999605459745570000005821989793132016805_" gradientUnits="userSpaceOnUse" x1="626.2599" y1="-394.2208" x2="-660.5787" y2="983.6074" gradientTransform="matrix(0.1841 -0.9829 -0.9829 -0.1841 2529.2695 3086.6138)">
					<stop  offset="0" style="stop-color:#B37CFF"/>
					<stop  offset="1" style="stop-color:#F895E7"/>
				</linearGradient>
				<path style="opacity:0.81;fill:url(#SVGID_00000044888999605459745570000005821989793132016805_);" d="M2331.098,2969.335
					c287.022,26.489,562.391-40.512,802.813-387.882C3133.911,2581.454,2444.221,2419.552,2331.098,2969.335z"/>
				<path style="opacity:0.51;fill:#FFFFFF;" d="M2493.95,2875.566c-0.773,0-1.551-0.264-2.186-0.802
					c-1.423-1.209-1.598-3.342-0.391-4.765c85.804-101.142,226.291-165.407,329.036-201.51
					c111.171-39.063,203.365-54.494,204.283-54.643c1.851-0.327,3.581,0.941,3.887,2.784c0.304,1.843-0.944,3.583-2.787,3.887
					c-3.649,0.604-366.817,62.376-529.26,253.855C2495.862,2875.16,2494.909,2875.566,2493.95,2875.566z"/>
			</g>
			
				<linearGradient id="SVGID_00000005268023648309626890000003999886033309310091_" gradientUnits="userSpaceOnUse" x1="1935.3978" y1="3181.1853" x2="1899.0621" y2="2461.7461">
				<stop  offset="0" style="stop-color:#2B3582"/>
				<stop  offset="1" style="stop-color:#150E42"/>
			</linearGradient>
			<polygon style="fill:url(#SVGID_00000005268023648309626890000003999886033309310091_);" points="1631.752,2364.432 
				1571.403,2905.673 2271.563,2905.673 2180.366,2364.432 			"/>
			<g>
				
					<linearGradient id="SVGID_00000018212548898279715440000003118224936885696404_" gradientUnits="userSpaceOnUse" x1="455.6077" y1="1692.8821" x2="3250.4417" y2="1692.8821">
					<stop  offset="0" style="stop-color:#2B3582"/>
					<stop  offset="1" style="stop-color:#150E42"/>
				</linearGradient>
				<path style="fill:url(#SVGID_00000018212548898279715440000003118224936885696404_);" d="M455.608,1030.93v1239.583
					c0,101.972,81.26,185.361,183.198,187.99c452.756,11.675,2036.279,39.984,2467.272,33.63
					c74.077-1.092,134.085-60.371,136.222-134.424c8.311-287.972,21.809-980.448-28.142-1301.938
					c-10.519-67.702-67.666-118.328-136.145-120.519c-379.353-12.136-2057.991-50.671-2488.783-40.996
					C514.934,895.924,455.608,956.614,455.608,1030.93z"/>
				
					<linearGradient id="SVGID_00000142881730735391805190000014496490316333006004_" gradientUnits="userSpaceOnUse" x1="2319.2739" y1="1088.0568" x2="-39.1289" y2="3789.6975">
					<stop  offset="0" style="stop-color:#53D8FF"/>
					<stop  offset="1" style="stop-color:#3840F7"/>
				</linearGradient>
				<path style="fill:url(#SVGID_00000142881730735391805190000014496490316333006004_);" d="M533.388,1024.896v1177.689
					c0,59.537,47.792,108.049,107.322,108.939l2403.363,29.692c59.02,0.882,107.399-46.602,107.618-105.628l4.021-1167.167
					c0.158-42.205-33.467-76.787-75.66-77.813l-2460.598-49.71C572.264,939.75,533.388,977.691,533.388,1024.896z"/>
				<path style="opacity:0.65;fill:#FFFFFF;" d="M3169.786,2389.533c-0.02,0-0.04,0-0.059,0l-2636.396-44.924
					c-1.867-0.033-3.355-1.572-3.324-3.438c0.031-1.869,1.509-3.507,3.439-3.325l2636.396,44.924
					c1.867,0.033,3.355,1.572,3.324,3.438C3173.134,2388.057,3171.625,2389.533,3169.786,2389.533z"/>
				<path style="opacity:0.65;fill:#FFFFFF;" d="M1877.593,2444.394c-16.99,0-30.812-13.823-30.812-30.813
					c0-16.99,13.822-30.81,30.812-30.81s30.813,13.82,30.813,30.81C1908.406,2430.57,1894.583,2444.394,1877.593,2444.394z
					 M1877.593,2389.533c-13.26,0-24.049,10.789-24.049,24.047c0,13.262,10.788,24.05,24.049,24.05
					c13.262,0,24.05-10.788,24.05-24.05C1901.644,2400.322,1890.855,2389.533,1877.593,2389.533z"/>
			</g>
			<g>
				
					<linearGradient id="SVGID_00000070806667412763504670000000127458512018107321_" gradientUnits="userSpaceOnUse" x1="-705.5162" y1="-280.3073" x2="-2240.0222" y2="1362.7001" gradientTransform="matrix(-0.3594 -0.9332 -0.9332 0.3594 2218.5627 1555.7941)">
					<stop  offset="0" style="stop-color:#A737D5"/>
					<stop  offset="1" style="stop-color:#EF497A"/>
				</linearGradient>
				<path style="fill:url(#SVGID_00000070806667412763504670000000127458512018107321_);" d="M2288.872,2984.355
					c307.877-152.834,545.39-393.252,571.886-896.325C2860.758,2088.031,2059.435,2355.563,2288.872,2984.355z"/>
				<path style="opacity:0.51;fill:#FFFFFF;" d="M2338.668,2870.794c-0.372,0-0.75-0.059-1.12-0.191
					c-1.762-0.617-2.69-2.546-2.072-4.31c73.493-209.509,182.712-371.042,261.395-469.661
					c85.282-106.891,154.156-165.044,154.841-165.618c1.433-1.202,3.563-1.007,4.763,0.419c1.2,1.43,1.014,3.563-0.418,4.765
					c-2.726,2.285-274.193,233.212-414.199,632.333C2341.371,2869.923,2340.063,2870.794,2338.668,2870.794z"/>
			</g>
			<g>
				
					<linearGradient id="SVGID_00000056400169622409631430000002258950085207710348_" gradientUnits="userSpaceOnUse" x1="1937.6591" y1="2909.7122" x2="1603.3733" y2="3643.6868">
					<stop  offset="0" style="stop-color:#2B3582"/>
					<stop  offset="1" style="stop-color:#150E42"/>
				</linearGradient>
				<path style="fill:url(#SVGID_00000056400169622409631430000002258950085207710348_);" d="M2422.377,3016.411H1397.645
					c-27.839,0-48.745-19.818-43.362-41.106l13.149-52.002c3.954-15.639,21.159-27.12,41.594-27.758l987.878-30.826
					c21.349-0.666,40.252,10.667,44.904,26.92l23.704,82.828C2471.67,2995.985,2450.665,3016.411,2422.377,3016.411z"/>
				<path style="fill:#FFFFFF;" d="M1949.277,2909.675c-1.844,0-3.352-1.483-3.38-3.332c-0.026-1.866,1.464-3.405,3.332-3.431
					l42.332-0.621c0.016,0,0.033,0,0.051,0c1.844,0,3.352,1.483,3.38,3.332c0.026,1.866-1.465,3.405-3.332,3.431l-42.332,0.621
					C1949.312,2909.675,1949.295,2909.675,1949.277,2909.675z"/>
				<path style="fill:#FFFFFF;" d="M1392.222,2987.784c-0.177,0-0.357-0.013-0.537-0.043c-1.844-0.294-3.101-2.028-2.805-3.87
					l6.038-37.824c3.248-20.345,20.557-35.331,41.158-35.635l448.993-6.565c1.775-0.142,3.403,1.466,3.431,3.332
					c0.026,1.869-1.465,3.405-3.332,3.431l-448.993,6.565c-17.307,0.254-31.85,12.842-34.58,29.935l-6.038,37.824
					C1395.293,2986.598,1393.855,2987.784,1392.222,2987.784z"/>
			</g>
		</g>
		<g>
			<g>
				
					<linearGradient id="SVGID_00000047755574019406399880000013978924212273631921_" gradientUnits="userSpaceOnUse" x1="883.0659" y1="-60.2113" x2="171.9371" y2="1711.967" gradientTransform="matrix(0.9574 -0.2888 0.2888 0.9574 1906.0146 448.3311)">
					<stop  offset="0" style="stop-color:#18459F"/>
					<stop  offset="0.9901" style="stop-color:#3E60F9"/>
				</linearGradient>
				<path style="fill:url(#SVGID_00000047755574019406399880000013978924212273631921_);" d="M2676.462,523.006
					c15.323,0.725,30.785,2.129,45.953,4.167c2.081,0.279,4.113,0.096,6.003-0.474c5.182-1.563,9.244-6.031,10.009-11.748
					c1.049-7.796-4.422-14.968-12.221-16.016c-15.972-2.145-32.258-3.62-48.394-4.385c-7.861-0.371-14.533,5.697-14.902,13.556
					C2662.535,515.961,2668.605,522.633,2676.462,523.006z"/>
				
					<linearGradient id="SVGID_00000170262384846997205380000004973667601654981048_" gradientUnits="userSpaceOnUse" x1="480.8991" y1="-221.5879" x2="-230.2107" y2="1550.5431" gradientTransform="matrix(0.9574 -0.2888 0.2888 0.9574 1906.0146 448.3311)">
					<stop  offset="0" style="stop-color:#18459F"/>
					<stop  offset="0.9901" style="stop-color:#3E60F9"/>
				</linearGradient>
				<path style="fill:url(#SVGID_00000170262384846997205380000004973667601654981048_);" d="M2277.388,652.224
					c-5.445-5.681-14.46-5.874-20.143-0.428c-11.643,11.16-22.947,22.963-33.597,35.067c-5.194,5.908-4.619,14.906,1.288,20.104
					c3.837,3.376,8.979,4.312,13.536,2.938c2.459-0.742,4.748-2.153,6.569-4.225c10.118-11.502,20.858-22.71,31.921-33.317
					C2282.64,666.919,2282.829,657.899,2277.388,652.224z"/>
				
					<linearGradient id="SVGID_00000083782464770143096880000015056034068244170643_" gradientUnits="userSpaceOnUse" x1="367.4151" y1="-267.1362" x2="-343.7022" y2="1505.0134" gradientTransform="matrix(0.9574 -0.2888 0.2888 0.9574 1906.0146 448.3311)">
					<stop  offset="0" style="stop-color:#18459F"/>
					<stop  offset="0.9901" style="stop-color:#3E60F9"/>
				</linearGradient>
				<path style="fill:url(#SVGID_00000083782464770143096880000015056034068244170643_);" d="M2102.709,974.142
					c-7.788-1.051-14.971,4.399-16.036,12.195c-2.176,15.987-3.68,32.261-4.471,48.367c-0.387,7.858,5.671,14.54,13.526,14.931
					c1.675,0.081,3.298-0.129,4.816-0.587c5.605-1.691,9.809-6.759,10.112-12.942c0.752-15.297,2.181-30.746,4.247-45.928
					C2115.965,982.384,2110.503,975.203,2102.709,974.142z"/>
				
					<linearGradient id="SVGID_00000106111451051136286520000001788364071509401220_" gradientUnits="userSpaceOnUse" x1="419.4233" y1="-246.2592" x2="-291.6901" y2="1525.8806" gradientTransform="matrix(0.9574 -0.2888 0.2888 0.9574 1906.0146 448.3311)">
					<stop  offset="0" style="stop-color:#18459F"/>
					<stop  offset="0.9901" style="stop-color:#3E60F9"/>
				</linearGradient>
				<path style="fill:url(#SVGID_00000106111451051136286520000001788364071509401220_);" d="M2195.5,745.492
					c-6.569-4.336-15.406-2.519-19.732,4.052c-8.895,13.482-17.307,27.492-25.002,41.628c-3.763,6.907-1.213,15.558,5.699,19.32
					c3.481,1.896,7.404,2.19,10.924,1.128c3.462-1.044,6.531-3.4,8.396-6.827c7.316-13.436,15.309-26.75,23.766-39.564
					C2203.881,758.657,2202.066,749.823,2195.5,745.492z"/>
				
					<linearGradient id="SVGID_00000007413237593033403730000013232656822535149755_" gradientUnits="userSpaceOnUse" x1="768.6924" y1="-106.0925" x2="57.5934" y2="1666.0116" gradientTransform="matrix(0.9574 -0.2888 0.2888 0.9574 1906.0146 448.3311)">
					<stop  offset="0" style="stop-color:#18459F"/>
					<stop  offset="0.9901" style="stop-color:#3E60F9"/>
				</linearGradient>
				<path style="fill:url(#SVGID_00000007413237593033403730000013232656822535149755_);" d="M2555.801,530.899
					c15.103-2.701,30.493-4.792,45.742-6.201c0.972-0.09,1.912-0.281,2.812-0.552c6.351-1.916,10.693-8.089,10.057-14.947
					c-0.724-7.832-7.663-13.596-15.499-12.872c-16.043,1.487-32.238,3.686-48.131,6.527c-7.759,1.352-12.896,8.789-11.515,16.532
					C2540.654,527.128,2548.053,532.283,2555.801,530.899z"/>
				
					<linearGradient id="SVGID_00000148656897047838419970000001583465300871368333_" gradientUnits="userSpaceOnUse" x1="380.9771" y1="-261.6933" x2="-330.1385" y2="1510.4524" gradientTransform="matrix(0.9574 -0.2888 0.2888 0.9574 1906.0146 448.3311)">
					<stop  offset="0" style="stop-color:#18459F"/>
					<stop  offset="0.9901" style="stop-color:#3E60F9"/>
				</linearGradient>
				<path style="fill:url(#SVGID_00000148656897047838419970000001583465300871368333_);" d="M2136.273,854.592
					c-7.365-2.766-15.577,0.955-18.354,8.308c-5.684,15.094-10.787,30.623-15.17,46.155c-2.132,7.571,2.276,15.441,9.847,17.575
					c2.708,0.764,5.456,0.691,7.966-0.066c4.505-1.359,8.238-4.914,9.612-9.775c4.156-14.76,9.006-29.509,14.407-43.843
					C2147.353,865.582,2143.632,857.365,2136.273,854.592z"/>
				
					<linearGradient id="SVGID_00000099633685693763265090000017701059647803217294_" gradientUnits="userSpaceOnUse" x1="380.145" y1="-262.0325" x2="-330.9738" y2="1510.1208" gradientTransform="matrix(0.9574 -0.2888 0.2888 0.9574 1906.0146 448.3311)">
					<stop  offset="0" style="stop-color:#18459F"/>
					<stop  offset="0.9901" style="stop-color:#3E60F9"/>
				</linearGradient>
				<path style="fill:url(#SVGID_00000099633685693763265090000017701059647803217294_);" d="M2096.73,1098.111
					c-7.862,0.738-13.612,7.639-12.902,15.475c1.448,16.016,3.612,32.207,6.426,48.119c1.372,7.746,8.766,12.915,16.514,11.543
					c0.561-0.1,1.111-0.231,1.646-0.392c6.815-2.056,11.17-8.931,9.898-16.115c-2.679-15.122-4.735-30.502-6.113-45.727
					C2111.492,1103.185,2104.566,1097.404,2096.73,1098.111z"/>
				
					<linearGradient id="SVGID_00000076571459876828283250000012903999313377285806_" gradientUnits="userSpaceOnUse" x1="562.3882" y1="-188.885" x2="-148.7197" y2="1583.2413" gradientTransform="matrix(0.9574 -0.2888 0.2888 0.9574 1906.0146 448.3311)">
					<stop  offset="0" style="stop-color:#18459F"/>
					<stop  offset="0.9901" style="stop-color:#3E60F9"/>
				</linearGradient>
				<path style="fill:url(#SVGID_00000076571459876828283250000012903999313377285806_);" d="M2330.269,626.527
					c1.473-0.444,2.898-1.142,4.219-2.091c12.417-8.959,25.374-17.488,38.516-25.346c6.752-4.042,8.951-12.789,4.915-19.54
					c-4.04-6.755-12.771-8.917-19.54-4.911c-13.837,8.277-27.484,17.258-40.558,26.694c-6.38,4.603-7.821,13.505-3.217,19.887
					C2318.253,626.281,2324.612,628.233,2330.269,626.527z"/>
				
					<linearGradient id="SVGID_00000149362668195882476010000004101977499745240473_" gradientUnits="userSpaceOnUse" x1="659.9821" y1="-149.7204" x2="-51.1232" y2="1622.3994" gradientTransform="matrix(0.9574 -0.2888 0.2888 0.9574 1906.0146 448.3311)">
					<stop  offset="0" style="stop-color:#18459F"/>
					<stop  offset="0.9901" style="stop-color:#3E60F9"/>
				</linearGradient>
				<path style="fill:url(#SVGID_00000149362668195882476010000004101977499745240473_);" d="M2438.39,565.744
					c0.482-0.146,0.964-0.319,1.439-0.515c14.101-5.951,28.643-11.371,43.23-16.108c7.486-2.427,11.58-10.461,9.151-17.947
					c-2.399-7.384-10.257-11.471-17.656-9.239c-0.096,0.029-0.195,0.059-0.289,0.093c-15.358,4.981-30.669,10.686-45.509,16.947
					c-7.249,3.064-10.645,11.417-7.587,18.667C2424.025,564.411,2431.508,567.82,2438.39,565.744z"/>
				
					<linearGradient id="SVGID_00000136371352971108870140000006415450034281608837_" gradientUnits="userSpaceOnUse" x1="417.6119" y1="-246.9987" x2="-293.5087" y2="1525.1594" gradientTransform="matrix(0.9574 -0.2888 0.2888 0.9574 1906.0146 448.3311)">
					<stop  offset="0" style="stop-color:#18459F"/>
					<stop  offset="0.9901" style="stop-color:#3E60F9"/>
				</linearGradient>
				<path style="fill:url(#SVGID_00000136371352971108870140000006415450034281608837_);" d="M2136.328,1229.306
					c-2.386-7.399-10.311-11.689-17.721-9.454c-0.089,0.027-0.177,0.053-0.267,0.081c-7.529,2.271-11.54,10.632-9.125,18.121
					c4.966,15.391,10.769,31.152,16.998,45.988c2.845,6.785,10.301,10.087,17.194,8.008c0.473-0.143,0.878-0.538,1.343-0.736
					c7.257-3.043,10.682-11.352,7.637-18.605C2146.473,1258.614,2141.045,1243.93,2136.328,1229.306z"/>
				
					<linearGradient id="SVGID_00000176743560050244591350000000966197781065504954_" gradientUnits="userSpaceOnUse" x1="986.6833" y1="-18.6281" x2="275.557" y2="1753.5442" gradientTransform="matrix(0.9574 -0.2888 0.2888 0.9574 1906.0146 448.3311)">
					<stop  offset="0" style="stop-color:#18459F"/>
					<stop  offset="0.9901" style="stop-color:#3E60F9"/>
				</linearGradient>
				<path style="fill:url(#SVGID_00000176743560050244591350000000966197781065504954_);" d="M2835.388,539.697
					c2.435-7.476-1.659-15.517-9.138-17.951c-7.349-2.392-14.865-4.67-22.348-6.772c-7.576-2.143-15.443,2.281-17.57,9.856
					c-2.13,7.57,2.285,15.439,9.858,17.566c7.114,2.004,14.261,4.166,21.244,6.442c2.872,0.935,5.824,0.905,8.509,0.095
					C2830.257,547.632,2833.887,544.311,2835.388,539.697z"/>
			</g>
			
				<linearGradient id="SVGID_00000060737416297077491700000008539065998212292776_" gradientUnits="userSpaceOnUse" x1="855.7173" y1="-71.2281" x2="144.5791" y2="1700.9735" gradientTransform="matrix(0.9574 -0.2888 0.2888 0.9574 1906.0146 448.3311)">
				<stop  offset="0" style="stop-color:#18459F"/>
				<stop  offset="0.9901" style="stop-color:#3E60F9"/>
			</linearGradient>
			<path style="fill:url(#SVGID_00000060737416297077491700000008539065998212292776_);" d="M2597.743,1601.004
				c-15.008-1.472-30.132-3.605-44.95-6.336c-7.745-1.43-15.165,3.685-16.592,11.426c-1.426,7.735,3.688,15.161,11.424,16.588
				c15.605,2.878,31.534,5.123,47.336,6.674c1.911,0.185,3.769-0.009,5.501-0.531c5.361-1.617,9.485-6.337,10.065-12.254
				C2611.298,1608.743,2605.573,1601.768,2597.743,1601.004z"/>
			<g>
				
					<linearGradient id="SVGID_00000062185279886012594310000010484098226728272544_" gradientUnits="userSpaceOnUse" x1="1357.196" y1="152.2077" x2="646.0765" y2="1924.3632" gradientTransform="matrix(0.9574 -0.2888 0.2888 0.9574 1906.0146 448.3311)">
					<stop  offset="0" style="stop-color:#18459F"/>
					<stop  offset="0.9901" style="stop-color:#3E60F9"/>
				</linearGradient>
				<path style="fill:url(#SVGID_00000062185279886012594310000010484098226728272544_);" d="M3185.462,851.495
					c3.1,6.382,10.333,9.408,16.915,7.422c0.717-0.216,1.428-0.489,2.122-0.826c7.077-3.436,10.031-11.957,6.596-19.035
					c-3.375-6.956-6.957-13.961-10.636-20.812c-3.722-6.927-12.333-9.543-19.291-5.805c-6.93,3.723-9.529,12.359-5.806,19.292
					C3178.861,838.236,3182.259,844.888,3185.462,851.495z"/>
				
					<linearGradient id="SVGID_00000037691063210718322170000003159356898158618267_" gradientUnits="userSpaceOnUse" x1="1430.7611" y1="181.7286" x2="719.6429" y2="1953.8802" gradientTransform="matrix(0.9574 -0.2888 0.2888 0.9574 1906.0146 448.3311)">
					<stop  offset="0" style="stop-color:#18459F"/>
					<stop  offset="0.9901" style="stop-color:#3E60F9"/>
				</linearGradient>
				<path style="fill:url(#SVGID_00000037691063210718322170000003159356898158618267_);" d="M3250.195,1020.822
					c-7.805,0.762-13.561,7.723-12.799,15.555c1.463,15.018,2.295,30.261,2.487,45.314c0.097,7.864,6.555,14.163,14.421,14.062
					c1.369-0.017,2.692-0.224,3.94-0.601c5.925-1.787,10.205-7.326,10.123-13.822c-0.197-15.848-1.078-31.897-2.613-47.706
					C3264.992,1025.791,3258.025,1020.058,3250.195,1020.822z"/>
				
					<linearGradient id="SVGID_00000180353782670533102070000007534429234268473768_" gradientUnits="userSpaceOnUse" x1="1434.4242" y1="183.201" x2="723.3088" y2="1955.3458" gradientTransform="matrix(0.9574 -0.2888 0.2888 0.9574 1906.0146 448.3311)">
					<stop  offset="0" style="stop-color:#18459F"/>
					<stop  offset="0.9901" style="stop-color:#3E60F9"/>
				</linearGradient>
				<path style="fill:url(#SVGID_00000180353782670533102070000007534429234268473768_);" d="M3251.642,1142.993
					c-7.792-0.98-14.925,4.554-15.906,12.359c-1.879,14.945-4.425,30.005-7.568,44.768c-1.637,7.694,3.27,15.258,10.964,16.895
					c2.433,0.516,4.846,0.38,7.068-0.29c4.813-1.452,8.709-5.41,9.833-10.678c3.306-15.539,5.987-31.4,7.967-47.143
					C3264.982,1151.099,3259.45,1143.974,3251.642,1142.993z"/>
				
					<linearGradient id="SVGID_00000029761024339996821530000006258000529198103996_" gradientUnits="userSpaceOnUse" x1="1368.0139" y1="156.5596" x2="656.9024" y2="1928.6949" gradientTransform="matrix(0.9574 -0.2888 0.2888 0.9574 1906.0146 448.3311)">
					<stop  offset="0" style="stop-color:#18459F"/>
					<stop  offset="0.9901" style="stop-color:#3E60F9"/>
				</linearGradient>
				<path style="fill:url(#SVGID_00000029761024339996821530000006258000529198103996_);" d="M3155.476,1377.856
					c-8.081,12.713-16.807,25.254-25.93,37.271c-4.759,6.265-3.536,15.201,2.729,19.96c3.776,2.866,8.522,3.561,12.739,2.289
					c2.781-0.839,5.329-2.532,7.217-5.019c9.605-12.644,18.785-25.839,27.292-39.221c4.218-6.643,2.257-15.444-4.384-19.665
					C3168.488,1369.248,3159.688,1371.21,3155.476,1377.856z"/>
				
					<linearGradient id="SVGID_00000083777757633737143240000012895078081774903978_" gradientUnits="userSpaceOnUse" x1="1216.4225" y1="95.7381" x2="505.3148" y2="1867.864" gradientTransform="matrix(0.9574 -0.2888 0.2888 0.9574 1906.0146 448.3311)">
					<stop  offset="0" style="stop-color:#18459F"/>
					<stop  offset="0.9901" style="stop-color:#3E60F9"/>
				</linearGradient>
				<path style="fill:url(#SVGID_00000083777757633737143240000012895078081774903978_);" d="M2988.233,1544.899
					c-12.759,8.068-25.999,15.672-39.354,22.605c-6.982,3.629-9.703,12.226-6.076,19.211c3.209,6.175,10.308,9.014,16.739,7.075
					c0.837-0.252,1.663-0.583,2.468-1.001c14.063-7.305,28.01-15.312,41.445-23.805c6.651-4.203,8.635-13.002,4.431-19.655
					C3003.683,1542.681,2994.889,1540.707,2988.233,1544.899z"/>
				
					<linearGradient id="SVGID_00000007401483385332656610000009164171604543586751_" gradientUnits="userSpaceOnUse" x1="1301.4131" y1="129.8349" x2="590.3036" y2="1901.9651" gradientTransform="matrix(0.9574 -0.2888 0.2888 0.9574 1906.0146 448.3311)">
					<stop  offset="0" style="stop-color:#18459F"/>
					<stop  offset="0.9901" style="stop-color:#3E60F9"/>
				</linearGradient>
				<path style="fill:url(#SVGID_00000007401483385332656610000009164171604543586751_);" d="M3081.066,1470.659
					c-10.68,10.672-21.923,21.003-33.419,30.701c-6.014,5.074-6.776,14.063-1.7,20.076c3.78,4.48,9.732,6.044,15.006,4.453
					c1.805-0.544,3.533-1.461,5.065-2.754c12.106-10.213,23.941-21.088,35.185-32.326c5.563-5.56,5.568-14.576,0.01-20.141
					C3095.65,1465.098,3086.63,1465.099,3081.066,1470.659z"/>
				
					<linearGradient id="SVGID_00000091012159444846310680000017874960751727956648_" gradientUnits="userSpaceOnUse" x1="1413.1006" y1="174.6486" x2="701.9851" y2="1946.7938" gradientTransform="matrix(0.9574 -0.2888 0.2888 0.9574 1906.0146 448.3311)">
					<stop  offset="0" style="stop-color:#18459F"/>
					<stop  offset="0.9901" style="stop-color:#3E60F9"/>
				</linearGradient>
				<path style="fill:url(#SVGID_00000091012159444846310680000017874960751727956648_);" d="M3226.155,1262.478
					c-7.409-2.676-15.565,1.162-18.237,8.558c-5.112,14.166-10.9,28.302-17.197,42.029c-3.282,7.151-0.144,15.607,7.007,18.885
					c3.284,1.508,6.841,1.661,10.048,0.694c3.776-1.139,7.066-3.834,8.839-7.699c6.626-14.442,12.714-29.326,18.099-44.23
					C3237.385,1273.313,3233.553,1265.152,3226.155,1262.478z"/>
				
					<linearGradient id="SVGID_00000129925444263263494540000006720453826552613034_" gradientUnits="userSpaceOnUse" x1="1008.1888" y1="12.1933" x2="297.0893" y2="1784.2986" gradientTransform="matrix(0.9574 -0.2888 0.2888 0.9574 1906.0146 448.3311)">
					<stop  offset="0" style="stop-color:#18459F"/>
					<stop  offset="0.9901" style="stop-color:#3E60F9"/>
				</linearGradient>
				<path style="fill:url(#SVGID_00000129925444263263494540000006720453826552613034_);" d="M2765.472,1624.401
					c-14.989,1.859-30.218,3.11-45.263,3.709c-7.853,0.288-13.981,6.937-13.67,14.799c0.312,7.857,6.938,13.977,14.798,13.664
					c15.843-0.629,31.875-1.943,47.645-3.904c0.819-0.102,1.614-0.271,2.374-0.501c6.525-1.968,10.875-8.4,10.006-15.392
					C2780.392,1628.973,2773.277,1623.43,2765.472,1624.401z"/>
				
					<linearGradient id="SVGID_00000153692147892063238300000015015639916725103254_" gradientUnits="userSpaceOnUse" x1="1117.0315" y1="55.8627" x2="405.928" y2="1827.978" gradientTransform="matrix(0.9574 -0.2888 0.2888 0.9574 1906.0146 448.3311)">
					<stop  offset="0" style="stop-color:#18459F"/>
					<stop  offset="0.9901" style="stop-color:#3E60F9"/>
				</linearGradient>
				<path style="fill:url(#SVGID_00000153692147892063238300000015015639916725103254_);" d="M2881.28,1596.927
					c-14.111,5.023-28.655,9.52-43.391,13.431c-7.573,1.982-12.132,9.82-10.115,17.424c2.018,7.604,9.818,12.132,17.422,10.118
					c6.385-1.694,12.717-3.487,18.991-5.38c8.953-2.701,17.92-5.644,26.647-8.753c7.411-2.637,11.283-10.785,8.642-18.2
					C2896.837,1598.156,2888.701,1594.299,2881.28,1596.927z"/>
				
					<linearGradient id="SVGID_00000118386933946849400950000017986454294611529346_" gradientUnits="userSpaceOnUse" x1="1402.4159" y1="170.3523" x2="691.2953" y2="1942.5104" gradientTransform="matrix(0.9574 -0.2888 0.2888 0.9574 1906.0146 448.3311)">
					<stop  offset="0" style="stop-color:#18459F"/>
					<stop  offset="0.9901" style="stop-color:#3E60F9"/>
				</linearGradient>
				<path style="fill:url(#SVGID_00000118386933946849400950000017986454294611529346_);" d="M3240.133,911.071
					c-2.437-7.477-10.428-11.745-17.953-9.132c-7.483,2.432-11.573,10.471-9.138,17.954c1.235,3.795,2.437,7.617,3.596,11.458
					c3.201,10.612,6.118,21.466,8.67,32.274c1.808,7.655,9.483,12.395,17.138,10.586c0.287-0.069,0.572-0.143,0.852-0.227
					c7.152-2.157,11.477-9.541,9.734-16.908c-2.683-11.366-5.753-22.791-9.119-33.951
					C3242.693,919.081,3241.433,915.067,3240.133,911.071z"/>
			</g>
			
				<linearGradient id="SVGID_00000021109785866517137000000014030300616523228293_" gradientUnits="userSpaceOnUse" x1="754.2251" y1="-111.9273" x2="43.0999" y2="1660.2421" gradientTransform="matrix(0.9574 -0.2888 0.2888 0.9574 1906.0146 448.3311)">
				<stop  offset="0" style="stop-color:#18459F"/>
				<stop  offset="0.9901" style="stop-color:#3E60F9"/>
			</linearGradient>
			<path style="fill:url(#SVGID_00000021109785866517137000000014030300616523228293_);" d="M2481.018,1576.238
				c-6.95-2.303-13.988-4.795-20.912-7.408c-7.366-2.782-15.576,0.938-18.357,8.298c-2.779,7.359,0.936,15.578,8.299,18.356
				c7.29,2.752,14.697,5.377,22.02,7.8c2.888,0.954,5.866,0.933,8.578,0.115c4.288-1.293,7.903-4.586,9.42-9.164
				C2492.537,1586.764,2488.484,1578.706,2481.018,1576.238z"/>
			<g>
				
					<linearGradient id="SVGID_00000072262843907815183060000017200722593484827308_" gradientUnits="userSpaceOnUse" x1="1894.2892" y1="-84.0216" x2="2266.802" y2="2286.5127" gradientTransform="matrix(0.981 0.1938 -0.1938 0.981 941.2735 188.9333)">
					<stop  offset="0" style="stop-color:#18459F"/>
					<stop  offset="0.9901" style="stop-color:#3E60F9"/>
				</linearGradient>
				<path style="fill:url(#SVGID_00000072262843907815183060000017200722593484827308_);" d="M3117.272,944.735l-80.185-11.305
					c-15.339-34.154-35.824-65.062-60.238-92.064l-103.498,19.891l-79.098,85.761l69.826,151.19l-176.725-5.906l-103.297,76.912
					l14.023,135.725l-108.626-21.063l-36.979,36.676l-20.869,78.029c-0.735,2.745,0.352,5.65,2.708,7.24l80.578,54.35
					c2.355,1.588,5.46,1.508,7.728-0.201l64.735-48.738c35.37,13.448,73.141,21.354,112.055,22.837l40.521,70.11
					c1.422,2.459,4.248,3.745,7.036,3.203l95.41-18.546c2.787-0.543,4.925-2.795,5.321-5.605l11.306-80.186
					c35.525-15.955,67.582-37.432,95.34-63.154l78.28,20.937c2.743,0.734,5.649-0.354,7.238-2.708l54.35-80.579
					c1.59-2.357,1.509-5.46-0.2-7.728l-48.738-64.734c13.449-35.371,21.353-73.142,22.837-112.057l70.111-40.522
					c2.459-1.421,3.746-4.245,3.203-7.034l-18.546-95.411C3122.338,947.268,3120.086,945.13,3117.272,944.735z"/>
				
					<linearGradient id="SVGID_00000098203892461990807350000010866403531876163723_" gradientUnits="userSpaceOnUse" x1="1697.6874" y1="1709.9701" x2="2009.9701" y2="144.7879" gradientTransform="matrix(0.981 0.1938 -0.1938 0.981 941.2735 188.9333)">
					<stop  offset="0" style="stop-color:#53D8FF"/>
					<stop  offset="1" style="stop-color:#3840F7"/>
				</linearGradient>
				<path style="opacity:0.6;fill:url(#SVGID_00000098203892461990807350000010866403531876163723_);" d="M2745.095,1146.991
					c-34.286,16.125-74.66,3.83-94.682-27.141l-18.291,13.642c23.763,35.537,68.311,51.619,109.269,39.265
					c4.519-1.363,9-3.075,13.396-5.139c29.66-13.939,49.031-40.98,54.518-70.997l-23.125-0.819
					C2781.216,1117.502,2766.759,1136.813,2745.095,1146.991z"/>
				
					<linearGradient id="SVGID_00000080179422980940185000000016302612645059785394_" gradientUnits="userSpaceOnUse" x1="2023.3367" y1="-218.6727" x2="2072.2485" y2="1406.6658" gradientTransform="matrix(0.981 0.1938 -0.1938 0.981 941.2735 188.9333)">
					<stop  offset="0" style="stop-color:#53D8FF"/>
					<stop  offset="1" style="stop-color:#3840F7"/>
				</linearGradient>
				<path style="opacity:0.6;fill:url(#SVGID_00000080179422980940185000000016302612645059785394_);" d="M2944.129,1007.55
					c-15.283-50.635-46.605-94.366-90.031-125.419l-7.79,8.446c41.965,29.628,72.224,71.606,86.914,120.286
					c2.255,7.469,4.145,15.1,5.652,22.863c8.608,44.27,3.768,88.093-11.664,127.23c-27.738,70.367-89.697,125.602-169.298,141.062
					c-16.024,3.119-32.356,4.535-48.546,4.204c-3.142-0.057-5.75,2.432-5.813,5.578c-0.012,0.615,0.072,1.211,0.24,1.771
					c0.698,2.3,2.809,3.994,5.34,4.044c0.963,0.017,1.927-0.501,2.89-0.496c0.495,0.007,0.99-0.525,1.486-0.525
					c0.173,0,0.347,0,0.522,0c12.794,0,25.642-0.503,38.348-2.552c2.577-0.417,5.148-0.605,7.71-1.104
					c8.137-1.582,16.134-3.431,23.963-5.792c52.782-15.921,98.112-49.165,129.354-95.488
					c35.881-53.197,48.898-117.15,36.655-180.143C2948.477,1023.367,2946.494,1015.391,2944.129,1007.55z"/>
			</g>
			<g>
				
					<linearGradient id="SVGID_00000181783326588096850710000008037220713274535559_" gradientUnits="userSpaceOnUse" x1="1657.861" y1="71.8368" x2="1341.7899" y2="-1418.2169" gradientTransform="matrix(0.981 0.1938 -0.1938 0.981 941.2735 188.9333)">
					<stop  offset="0" style="stop-color:#18459F"/>
					<stop  offset="0.9901" style="stop-color:#3E60F9"/>
				</linearGradient>
				<path style="fill:url(#SVGID_00000181783326588096850710000008037220713274535559_);" d="M2515.298,1243.256l-13.361-129.32
					l103.297-76.912l172.179,5.754c2.086,0.07,3.514-2.083,2.639-3.978l-67.919-147.06l79.098-85.761l103.498-19.891
					c-0.979-1.084-1.922-2.204-2.916-3.276l20.938-78.281c0.734-2.743-0.354-5.649-2.707-7.236l-80.582-54.351
					c-2.354-1.59-5.458-1.508-7.726,0.2l-64.735,48.738c-35.37-13.45-73.141-21.355-112.055-22.837l-40.523-70.112
					c-1.421-2.459-4.247-3.746-7.035-3.204l-95.408,18.548c-2.789,0.542-4.926,2.794-5.323,5.607l-11.304,80.185
					c-35.526,15.952-67.584,37.432-95.342,63.153l-78.278-20.937c-2.743-0.736-5.652,0.353-7.24,2.708l-54.35,80.58
					c-1.588,2.354-1.507,5.456,0.2,7.725l48.737,64.735c-13.449,35.371-21.353,73.143-22.835,112.057l-70.113,40.522
					c-2.458,1.421-3.745,4.245-3.203,7.033l18.547,95.41c0.542,2.789,2.794,4.927,5.607,5.323l80.185,11.304
					c15.953,35.525,37.432,67.582,63.152,95.34l-0.067,0.25l36.979-36.676l102.306,19.838
					C2512.785,1249.045,2515.627,1246.444,2515.298,1243.256z"/>
				
					<linearGradient id="SVGID_00000003089725828755482100000017735829984201219240_" gradientUnits="userSpaceOnUse" x1="1777.4839" y1="-0.732" x2="1879.069" y2="1184.4255" gradientTransform="matrix(0.981 0.1938 -0.1938 0.981 941.2735 188.9333)">
					<stop  offset="0" style="stop-color:#53D8FF"/>
					<stop  offset="1" style="stop-color:#3840F7"/>
				</linearGradient>
				<path style="opacity:0.6;fill:url(#SVGID_00000003089725828755482100000017735829984201219240_);" d="M2568.293,1064.573
					c-1.811-2.801-3.516-5.698-4.972-8.799c-17.563-37.379-1.444-82.088,35.938-99.652c3.391-1.593,6.854-2.916,10.375-3.978
					c15.292-4.612,31.598-4.206,46.895,1.309c18.823,6.789,33.875,20.498,42.386,38.61c7.384,15.718,8.748,32.715,5.145,48.461
					l23.126,0.819c3.533-19.325,1.327-39.88-7.647-58.977c-11.097-23.62-30.729-41.504-55.278-50.355
					c-24.543-8.853-51.072-7.622-74.693,3.484c-48.755,22.913-69.783,81.214-46.873,129.975c2.122,4.512,4.616,8.721,7.308,12.745
					L2568.293,1064.573z"/>
				
					<linearGradient id="SVGID_00000092419002128772002430000002886961810340177853_" gradientUnits="userSpaceOnUse" x1="1803.9233" y1="1110.3546" x2="1698.5774" y2="-304.3066" gradientTransform="matrix(0.981 0.1938 -0.1938 0.981 941.2735 188.9333)">
					<stop  offset="0" style="stop-color:#53D8FF"/>
					<stop  offset="1" style="stop-color:#3840F7"/>
				</linearGradient>
				<path style="opacity:0.6;fill:url(#SVGID_00000092419002128772002430000002886961810340177853_);" d="M2766.458,822.958
					c-53.198-35.883-117.182-48.904-180.17-36.658c-129.99,25.271-215.254,151.622-189.974,281.658
					c1.562,8.014,3.519,15.921,5.863,23.687c10.159,33.661,27.576,64.726,51.1,90.904c2.107,2.351,5.701,2.528,8.049,0.431
					c1.697-1.523,2.262-3.838,1.646-5.883c-0.231-0.779-0.637-1.517-1.216-2.161c-22.408-24.934-38.993-54.523-48.668-86.587
					c-2.235-7.398-4.102-14.932-5.585-22.569c-24.077-123.853,57.051-244.192,180.962-268.292
					c59.998-11.663,120.95,0.737,171.624,34.918c1.391,0.939,2.735,1.929,4.1,2.894l7.79-8.446
					C2770.147,825.544,2768.331,824.221,2766.458,822.958z"/>
			</g>
		</g>
		<g>
			<g>
				
					<ellipse transform="matrix(0.7071 -0.7071 0.7071 0.7071 -319.0855 864.6736)" style="fill:#FFFFFF;" cx="884.211" cy="817.507" rx="280.188" ry="280.188"/>
				
					<linearGradient id="SVGID_00000139999670901574381180000013070006227737286822_" gradientUnits="userSpaceOnUse" x1="1059.2413" y1="136.5017" x2="805.1939" y2="1124.9413">
					<stop  offset="0" style="stop-color:#FDF53F"/>
					<stop  offset="1" style="stop-color:#D93C65"/>
				</linearGradient>
				<circle style="fill:url(#SVGID_00000139999670901574381180000013070006227737286822_);" cx="884.21" cy="817.507" r="270.871"/>
				<path style="fill:#FFFFFF;" d="M1107.57,707.847c0.433,0,0.874-0.098,1.287-0.308c1.411-0.713,1.977-2.434,1.264-3.843
					c-43.307-85.798-129.871-139.097-225.911-139.097c-15.316,0-30.666,1.38-45.622,4.108c-1.555,0.282-2.586,1.772-2.303,3.328
					c0.283,1.557,1.768,2.596,3.329,2.3c14.618-2.663,29.621-4.012,44.595-4.012c93.868,0,178.474,52.095,220.803,135.951
					C1105.516,707.271,1106.524,707.847,1107.57,707.847z"/>
				
					<ellipse transform="matrix(0.7071 -0.7071 0.7071 0.7071 -324.9872 862.229)" style="fill:#FFFFFF;" cx="878.309" cy="823.409" rx="229.259" ry="229.259"/>
			</g>
			<g>
				
					<linearGradient id="SVGID_00000129199729975223548730000015589022529195747005_" gradientUnits="userSpaceOnUse" x1="1782.0513" y1="-334.27" x2="1385.6909" y2="144.912">
					<stop  offset="0" style="stop-color:#FDF53F"/>
					<stop  offset="1" style="stop-color:#D93C65"/>
				</linearGradient>
				<path style="fill:url(#SVGID_00000129199729975223548730000015589022529195747005_);" d="M892.5,867.987l-25.946-0.62
					c-7.232-0.173-13.214-6.357-13.593-13.636l-9.498-182.789c-0.197-3.767,1.158-6.873,3.744-9.422
					c2.583-2.547,6.165-3.366,9.906-3.106l44.683,3.112c3.662,0.255,7.157,1.47,9.671,4.332c2.51,2.858,3.823,6.286,3.634,9.969
					l-9.241,179.46C905.489,862.464,899.627,868.158,892.5,867.987z"/>
				
					<linearGradient id="SVGID_00000099650885778402965320000008254489345477844644_" gradientUnits="userSpaceOnUse" x1="1871.9586" y1="-259.8969" x2="1475.5988" y2="219.2844">
					<stop  offset="0" style="stop-color:#FDF53F"/>
					<stop  offset="1" style="stop-color:#D93C65"/>
				</linearGradient>
				<path style="fill:url(#SVGID_00000099650885778402965320000008254489345477844644_);" d="M852.46,912.637
					c6.478-6.187,15.594-9.181,27.315-8.993c12.083,0.193,21.241,3.378,27.512,9.543c6.254,6.148,9.374,15.132,9.374,26.965
					c0,11.409-3.189,20.237-9.583,26.496c-6.411,6.278-15.501,9.422-27.303,9.422c-11.58,0-20.659-3.245-27.208-9.75
					c-6.567-6.523-9.857-15.448-9.857-26.758C842.709,927.821,845.964,918.842,852.46,912.637z"/>
			</g>
		</g>
		<g>
			<g>
				
					<linearGradient id="SVGID_00000018218514687157611530000007257899741665845136_" gradientUnits="userSpaceOnUse" x1="1722.8021" y1="713.1327" x2="1968.6484" y2="2104.3291">
					<stop  offset="0.0036" style="stop-color:#26264F"/>
					<stop  offset="1" style="stop-color:#444B8C"/>
				</linearGradient>
				<path style="fill:url(#SVGID_00000018218514687157611530000007257899741665845136_);" d="M1907.014,695.453l-723.286,1215.289
					c-15.879,26.681,4.877,59.326,37.892,59.597l1433.77,11.799c33.138,0.273,54.514-32.243,38.911-59.19L1983.818,695.861
					C1967.484,667.65,1923.699,667.418,1907.014,695.453z"/>
				
					<linearGradient id="SVGID_00000046300432835649026870000000800938831705591681_" gradientUnits="userSpaceOnUse" x1="2370.6584" y1="896.4116" x2="1098.493" y2="3842.7988">
					<stop  offset="0" style="stop-color:#FDF53F"/>
					<stop  offset="1" style="stop-color:#D93C65"/>
				</linearGradient>
				<path style="fill:url(#SVGID_00000046300432835649026870000000800938831705591681_);" d="M1910.668,768.054l-656.886,1103.721
					c-14.422,24.232,4.429,53.879,34.414,54.126l1302.146,10.716c30.096,0.248,49.509-29.283,35.339-53.756l-645.26-1114.437
					C1965.587,742.804,1925.822,742.593,1910.668,768.054z"/>
			</g>
			<g>
				<g>
					
						<linearGradient id="SVGID_00000167376633554516067310000016515868323901301151_" gradientUnits="userSpaceOnUse" x1="1579.708" y1="1788.33" x2="2229.3899" y2="208.5784">
						<stop  offset="0" style="stop-color:#2B3582"/>
						<stop  offset="1" style="stop-color:#150E42"/>
					</linearGradient>
					<path style="fill:url(#SVGID_00000167376633554516067310000016515868323901301151_);" d="M1797.755,1524.356l-32.094,0.417
						v57.305l-55.377,0.924v-57.509l-115.682,1.504v-41.11l118.809-180.369l52.25,0.056v173.81l32.094-0.324V1524.356z
						 M1710.285,1479.943v-47.073c0-7.844,0.303-19.233,0.92-34.167c0.611-14.93,1.105-23.599,1.47-26.007l-1.47,0.005
						c-4.542,10.394-10.007,20.542-16.394,30.452l-49.574,77.447L1710.285,1479.943z"/>
					
						<linearGradient id="SVGID_00000038409757730332645120000013330093741391079867_" gradientUnits="userSpaceOnUse" x1="1747.1691" y1="1857.2003" x2="2396.8513" y2="277.4481">
						<stop  offset="0" style="stop-color:#2B3582"/>
						<stop  offset="1" style="stop-color:#150E42"/>
					</linearGradient>
					<path style="fill:url(#SVGID_00000038409757730332645120000013330093741391079867_);" d="M2009.409,1441.927
						c0,47.536-7.411,82.818-22.25,105.883c-14.87,23.11-37.823,34.944-68.935,35.471c-30.277,0.512-53.187-11.002-68.653-34.579
						c-15.501-23.622-23.263-58.751-23.263-105.346c0-48.607,7.548-84.448,22.629-107.498c15.051-23.002,38.17-34.468,69.287-34.426
						c30.159,0.041,52.878,12.016,68.224,35.891C2001.766,1361.15,2009.409,1396.006,2009.409,1441.927z M1881.77,1442.923
						c0,33.666,2.788,57.755,8.365,72.261c5.571,14.495,14.938,21.647,28.089,21.465c12.888-0.179,22.184-7.662,27.899-22.445
						c5.71-14.768,8.564-38.716,8.564-71.849c0-33.504-2.884-57.564-8.653-72.185c-5.776-14.63-15.042-21.939-27.81-21.918
						c-13.032,0.022-22.368,7.384-28,22.091C1884.588,1385.063,1881.77,1409.26,1881.77,1442.923z"/>
					
						<linearGradient id="SVGID_00000145738249838648086260000006260057306655264431_" gradientUnits="userSpaceOnUse" x1="1951.9858" y1="1941.4318" x2="2601.6685" y2="361.6787">
						<stop  offset="0" style="stop-color:#2B3582"/>
						<stop  offset="1" style="stop-color:#150E42"/>
					</linearGradient>
					<path style="fill:url(#SVGID_00000145738249838648086260000006260057306655264431_);" d="M2229.497,1518.744l-30.331,0.394
						v55.71l-52.334,0.873v-55.903l-109.287,1.421v-39.953l112.241-175.297l49.38,0.053v168.971l30.331-0.306V1518.744z
						 M2146.832,1475.54v-45.758c0-7.625,0.289-18.696,0.869-33.213c0.58-14.513,1.044-22.94,1.392-25.28l-1.392,0.004
						c-4.292,10.104-9.453,19.967-15.491,29.599l-46.833,75.267L2146.832,1475.54z"/>
				</g>
				<g>
					
						<linearGradient id="SVGID_00000019678855412263884070000008669121251847427464_" gradientUnits="userSpaceOnUse" x1="1609.1606" y1="1800.4425" x2="2258.8433" y2="220.6897">
						<stop  offset="0" style="stop-color:#2B3582"/>
						<stop  offset="1" style="stop-color:#150E42"/>
					</linearGradient>
					<path style="fill:url(#SVGID_00000019678855412263884070000008669121251847427464_);" d="M1672.809,1824.492l-85.434,2.739
						v-152.629l85.434-1.911v26.373l-53.87,1.296v33.444l50.133-1.312v26.379l-50.133,1.397v39.281l53.87-1.635V1824.492z"/>
					
						<linearGradient id="SVGID_00000157266594975863977870000001061295711198210215_" gradientUnits="userSpaceOnUse" x1="1724.8379" y1="1848.0155" x2="2374.5217" y2="268.2593">
						<stop  offset="0" style="stop-color:#2B3582"/>
						<stop  offset="1" style="stop-color:#150E42"/>
					</linearGradient>
					<path style="fill:url(#SVGID_00000157266594975863977870000001061295711198210215_);" d="M1739.749,1764.345v58.001
						l-31.08,0.996v-151.453l42.677-0.955c19.822-0.443,34.456,2.958,43.933,10.197c9.464,7.23,14.191,18.422,14.191,33.586
						c0,8.851-2.346,16.786-7.041,23.809c-4.701,7.027-11.357,12.618-19.977,16.775c21.862,33.231,36.07,54.644,42.67,64.308
						l-34.115,1.094l-34.767-56.825L1739.749,1764.345z M1739.749,1738.294l9.997-0.267c9.786-0.261,17.002-2.141,21.654-5.633
						c4.649-3.493,6.973-8.847,6.973-16.067c0-7.15-2.376-12.18-7.123-15.089c-4.751-2.913-12.115-4.251-22.103-4.01l-9.398,0.226
						V1738.294z"/>
					
						<linearGradient id="SVGID_00000113326129293229512800000009837758011290127530_" gradientUnits="userSpaceOnUse" x1="1842.1135" y1="1896.2457" x2="2491.7979" y2="316.4888">
						<stop  offset="0" style="stop-color:#2B3582"/>
						<stop  offset="1" style="stop-color:#150E42"/>
					</linearGradient>
					<path style="fill:url(#SVGID_00000113326129293229512800000009837758011290127530_);" d="M1878.89,1760.402v57.483
						l-30.528,0.979v-150.1l41.919-0.938c19.47-0.436,33.845,2.938,43.153,10.115c9.296,7.168,13.94,18.261,13.94,33.291
						c0,8.772-2.305,16.636-6.917,23.595c-4.617,6.963-11.156,12.503-19.622,16.621c21.474,32.942,35.431,54.168,41.913,63.748
						l-33.511,1.074l-34.15-56.328L1878.89,1760.402z M1878.89,1734.583l9.82-0.262c9.612-0.256,16.701-2.118,21.27-5.578
						c4.566-3.46,6.85-8.767,6.85-15.923c0-7.086-2.333-12.072-6.997-14.956c-4.667-2.888-11.9-4.215-21.711-3.979l-9.231,0.222
						V1734.583z"/>
					
						<linearGradient id="SVGID_00000182506235139070431060000009641726195868880777_" gradientUnits="userSpaceOnUse" x1="1961.0469" y1="1945.1577" x2="2610.7173" y2="365.4343">
						<stop  offset="0" style="stop-color:#2B3582"/>
						<stop  offset="1" style="stop-color:#150E42"/>
					</linearGradient>
					<path style="fill:url(#SVGID_00000182506235139070431060000009641726195868880777_);" d="M2113.13,1736.409
						c0,24.421-5.721,43.363-17.177,56.839c-11.473,13.499-27.947,20.599-49.455,21.291c-21.569,0.694-38.174-5.374-49.78-18.225
						c-11.62-12.868-17.439-31.696-17.439-56.467c0-24.771,5.832-43.831,17.488-57.165c11.636-13.313,28.287-20.201,49.922-20.682
						c21.571-0.479,38.03,5.693,49.408,18.501C2107.455,1693.29,2113.13,1711.922,2113.13,1736.409z M2010.738,1739.194
						c0,16.594,2.997,29.001,8.981,37.221c5.979,8.213,14.907,12.134,26.778,11.773c23.744-0.723,35.59-17.699,35.59-50.934
						c0-33.301-11.78-49.671-35.398-49.106c-11.868,0.284-20.831,4.712-26.874,13.283
						C2013.765,1710.011,2010.738,1722.6,2010.738,1739.194z"/>
					
						<linearGradient id="SVGID_00000077323717461126444950000013263050010927772324_" gradientUnits="userSpaceOnUse" x1="2092.6992" y1="1999.3009" x2="2742.384" y2="419.5429">
						<stop  offset="0" style="stop-color:#2B3582"/>
						<stop  offset="1" style="stop-color:#150E42"/>
					</linearGradient>
					<path style="fill:url(#SVGID_00000077323717461126444950000013263050010927772324_);" d="M2176.179,1751.978v56.378
						l-29.364,0.941v-147.207l40.321-0.902c18.729-0.419,32.558,2.896,41.514,9.939c8.943,7.034,13.411,17.918,13.411,32.659
						c0,8.604-2.218,16.317-6.654,23.14c-4.442,6.828-10.733,12.257-18.878,16.293c20.66,32.322,34.087,53.15,40.324,62.551
						l-32.24,1.033l-32.853-55.267L2176.179,1751.978z M2176.179,1726.655l9.446-0.252c9.246-0.247,16.065-2.069,20.46-5.46
						c4.393-3.392,6.589-8.595,6.589-15.614c0-6.951-2.245-11.842-6.731-14.672c-4.489-2.835-11.448-4.14-20.885-3.913l-8.879,0.214
						V1726.655z"/>
				</g>
			</g>
		</g>
		<g>
			
				<linearGradient id="SVGID_00000039815938347347585450000003191674945222843021_" gradientUnits="userSpaceOnUse" x1="3670.7715" y1="3040.2439" x2="2975.7029" y2="3796.2842" gradientTransform="matrix(1 0 0 1 -2400.0403 0)">
				<stop  offset="0" style="stop-color:#2B3582"/>
				<stop  offset="1" style="stop-color:#150E42"/>
			</linearGradient>
			<path style="fill:url(#SVGID_00000039815938347347585450000003191674945222843021_);" d="M1051.019,3096.564
				c0,0-7.198,40.75-10.727,81.09c-1.379,15.765,10.775,29.454,26.587,30.113c53.719,2.237,168.628,6.588,209.861,4.748
				c6.199-0.277,10.251-6.622,7.957-12.387v0c-1.922-4.831-5.63-8.736-10.354-10.907l-189.807-87.235L1051.019,3096.564z"/>
			
				<linearGradient id="SVGID_00000137844692913722875680000006270149801670144940_" gradientUnits="userSpaceOnUse" x1="3445.1626" y1="3096.3962" x2="3506.9019" y2="3096.3962" gradientTransform="matrix(1 0 0 1 -2400.0403 0)">
				<stop  offset="0" style="stop-color:#F9B776"/>
				<stop  offset="1" style="stop-color:#F47960"/>
			</linearGradient>
			<path style="fill:url(#SVGID_00000137844692913722875680000006270149801670144940_);" d="M1045.122,3072.62l5.783,48.744
				c0,0,33.249,15.478,55.956-1.951l-13.769-54.32L1045.122,3072.62z"/>
			
				<linearGradient id="SVGID_00000123404211711980264140000007834765153348580227_" gradientUnits="userSpaceOnUse" x1="-210.9673" y1="6857.4023" x2="454.5412" y2="6077.3989" gradientTransform="matrix(1 0 0 1 -2400.0403 0)">
				<stop  offset="0" style="stop-color:#53D8FF"/>
				<stop  offset="1" style="stop-color:#3840F7"/>
			</linearGradient>
			<path style="fill:url(#SVGID_00000123404211711980264140000007834765153348580227_);" d="M1049.469,2156.23
				c-2.498,12.729-13.409,635.209,53.13,914.164c1.086,4.552-1.222,9.243-5.554,11.013c-10.206,4.17-30.213,10.208-54.19,11.013
				c-7.425,0.25-14.083-4.577-16.177-11.705c-19.02-64.721-110.16-388.996-122.049-698.766c-13.285-346.137,0-11.786,0-11.786
				l7.792-213.96L1049.469,2156.23z"/>
			
				<linearGradient id="SVGID_00000121271533197292935120000011704200941391412139_" gradientUnits="userSpaceOnUse" x1="3514.8445" y1="2896.8914" x2="2819.7754" y2="3652.9324" gradientTransform="matrix(1 0 0 1 -2400.0403 0)">
				<stop  offset="0" style="stop-color:#2B3582"/>
				<stop  offset="1" style="stop-color:#150E42"/>
			</linearGradient>
			<path style="fill:url(#SVGID_00000121271533197292935120000011704200941391412139_);" d="M832.678,3117.824
				c0,0-11.458,20.573-22.551,75.238c-2.003,9.873,4.894,19.321,14.92,20.307c17.738,1.744,45.045,3.987,66.92,3.836
				c10.084-0.069,17.953-8.849,16.738-18.86c-2.423-19.954-9.971-52.691-33.289-78.207L832.678,3117.824z"/>
			
				<linearGradient id="SVGID_00000132766805022528203100000004536397880251557524_" gradientUnits="userSpaceOnUse" x1="3222.6543" y1="3093.23" x2="3275.9607" y2="3093.23" gradientTransform="matrix(1 0 0 1 -2400.0403 0)">
				<stop  offset="0" style="stop-color:#F9B776"/>
				<stop  offset="1" style="stop-color:#F47960"/>
			</linearGradient>
			<path style="fill:url(#SVGID_00000132766805022528203100000004536397880251557524_);" d="M822.614,3055.129l13.514,73.713
				c0,0,13.361,9.938,39.793,2.734l-6.45-79.311L822.614,3055.129z"/>
			
				<linearGradient id="SVGID_00000140734069989219922990000011220503473058571931_" gradientUnits="userSpaceOnUse" x1="-304.2701" y1="6777.7983" x2="361.2364" y2="5997.7964" gradientTransform="matrix(1 0 0 1 -2400.0403 0)">
				<stop  offset="0" style="stop-color:#53D8FF"/>
				<stop  offset="1" style="stop-color:#3840F7"/>
			</linearGradient>
			<path style="fill:url(#SVGID_00000140734069989219922990000011220503473058571931_);" d="M786.108,2175.331
				c-54.419,328.426,11.805,811.732,34.14,906.327c1.367,5.791,6.041,10.228,11.911,11.201c9.969,1.653,26.383,3.001,42.564-1.698
				c5.576-1.619,9.493-6.648,9.72-12.45c2.996-76.477-2.397-545.971,48.31-731.517c2.57-9.403,8.312-17.604,16.257-23.252
				l98.418-69.967l7.545-113.095L786.108,2175.331z"/>
			<g>
				<g>
					<g>
						<g>
							<g>
								
									<linearGradient id="SVGID_00000052802939422096311310000005671209117328478851_" gradientUnits="userSpaceOnUse" x1="134.9884" y1="2513.1272" x2="1179.7622" y2="1733.1252">
									<stop  offset="0" style="stop-color:#A737D5"/>
									<stop  offset="1" style="stop-color:#EF497A"/>
								</linearGradient>
								<path style="fill:url(#SVGID_00000052802939422096311310000005671209117328478851_);" d="M1270.613,1707.174
									c-8.273,58.834-17.006,72.355-23.79,72.705c-21.597,1.116-17.244-131.534-96.231-198.633
									c-49.892-42.383-118.039-45.872-171.505-40.929c24.946,89.469,49.893,178.938,74.839,268.406
									c10.894,26.731,58.391,134.844,165.855,167.658c21.88,6.681,54.442,16.624,84.73,3.606
									c59.781-25.694,87.816-130.992,61.086-262.841C1353.03,1712.479,1335.637,1707.505,1270.613,1707.174z"/>
								
									<linearGradient id="SVGID_00000116920407814129984170000013918172682079593604_" gradientUnits="userSpaceOnUse" x1="-9536.1006" y1="3102.739" x2="-10228.5166" y2="3988.6245" gradientTransform="matrix(0.3133 -0.9497 0.9497 0.3133 1084.4857 -8779.0674)">
									<stop  offset="0" style="stop-color:#F9B776"/>
									<stop  offset="1" style="stop-color:#F47960"/>
								</linearGradient>
								<path style="fill:url(#SVGID_00000116920407814129984170000013918172682079593604_);" d="M1251.569,1477.737l9.89,55.915
									c15.888,68.388,17.4,125.392,9.153,173.522c13.652,0.563,27.98,1.526,42.912,2.998c18.413,1.816,35.8,4.214,52.072,6.974
									c-8.593-69.552-54.876-185.048-54.876-185.048C1282.807,1491.807,1279.483,1518.028,1251.569,1477.737z"/>
							</g>
							
								<linearGradient id="SVGID_00000065756193178104798070000005428819712590068388_" gradientUnits="userSpaceOnUse" x1="-9441.8379" y1="3176.4131" x2="-10134.2539" y2="4062.2979" gradientTransform="matrix(0.3133 -0.9497 0.9497 0.3133 1084.4857 -8779.0674)">
								<stop  offset="0" style="stop-color:#F9B776"/>
								<stop  offset="1" style="stop-color:#F47960"/>
							</linearGradient>
							<path style="fill:url(#SVGID_00000065756193178104798070000005428819712590068388_);" d="M1364.63,1359.917
								c-11.202-0.296-21.932,4.519-29.16,13.084l-70.544,83.588c0,0-12.84-2.623-14.042-27.209
								c-1.202-24.589-27.319-27.547-27.319-27.547s3.765,34.291,10.937,85.04c4.101,29.023,21.257,50.206,35.198,63.038
								l40.81-14.047c37.435-53.511,60.673-112.488,73.589-175.437L1364.63,1359.917z"/>
						</g>
						
							<linearGradient id="SVGID_00000052810229750629249540000017687828353164724882_" gradientUnits="userSpaceOnUse" x1="537.8282" y1="2354.9873" x2="1303.521" y2="1317.3674">
							<stop  offset="0" style="stop-color:#A737D5"/>
							<stop  offset="1" style="stop-color:#EF497A"/>
						</linearGradient>
						<path style="fill:url(#SVGID_00000052810229750629249540000017687828353164724882_);" d="M699.77,1587.328
							c4.702-1.234,36.833-34.432,41.663-35.352c79.193-15.093,276.859-68.329,409.158,29.27c0.331,2.818,0.539,5.068,0.67,6.932
							c1.283,1.741,3.042,4.663,5.456,9.341c12.493,24.214,27.486,47.744,44.65,69.729c-3.777,3.747-6.915,8.145-9.201,13.045
							c-31.79,68.099-152.298,340.052-131.118,506.36c1.094,8.589-4.752,16.501-13.328,17.688
							c-46.779,6.469-186.094,22.247-258.069-7.476c-4.189-1.73-6.868-5.838-6.802-10.369c0.473-33.367-0.938-178.183-54.03-352.746
							c-1.978-6.507-3.592-13.115-4.883-19.787c-0.655,1.344-1.269,2.673-1.903,4.009L699.77,1587.328z"/>
						
							<linearGradient id="SVGID_00000116945465151149229140000014989734952237429888_" gradientUnits="userSpaceOnUse" x1="286.2026" y1="2169.3062" x2="1051.7443" y2="1131.8911">
							<stop  offset="0" style="stop-color:#A737D5"/>
							<stop  offset="1" style="stop-color:#EF497A"/>
						</linearGradient>
						<path style="fill:url(#SVGID_00000116945465151149229140000014989734952237429888_);" d="M820.626,1536.883
							c-147.684,10.799-178.547,95.193-280.609,43.593l18.072,158.042c37.846,41.797,94.986,70.26,166.988,80.931L820.626,1536.883z
							"/>
					</g>
					<g>
						
							<linearGradient id="SVGID_00000138535540791012251790000009707131522000985473_" gradientUnits="userSpaceOnUse" x1="-5205.6807" y1="2183.8005" x2="-5324.7725" y2="2698.447" gradientTransform="matrix(0.9659 0.2591 -0.2591 0.9659 6608.8066 617.2191)">
							<stop  offset="0" style="stop-color:#F9B776"/>
							<stop  offset="1" style="stop-color:#F47960"/>
						</linearGradient>
						<path style="fill:url(#SVGID_00000138535540791012251790000009707131522000985473_);" d="M921.535,1393.947
							c-25.305,50.446-35.868,101.822-39.037,149.656c5.443,2.028,78.074,52.412,126.69,3.642
							c-10.393-33.471-8.674-83.861-6.03-135.546L921.535,1393.947z"/>
						<g>
							
								<linearGradient id="SVGID_00000070113634485128106700000005895905023410789311_" gradientUnits="userSpaceOnUse" x1="-1297.807" y1="1934.8418" x2="-1732.9766" y2="2146.3262" gradientTransform="matrix(-0.9451 0.3269 0.3269 0.9451 -1181.1458 -92.6297)">
								<stop  offset="0" style="stop-color:#F9B776"/>
								<stop  offset="1" style="stop-color:#F47960"/>
							</linearGradient>
							<path style="fill:url(#SVGID_00000070113634485128106700000005895905023410789311_);" d="M1053.296,1261.332
								c1.391,2.251,37.688,173.426,37.688,173.426l-98.178,18.647l-58.506-157.128
								C934.299,1296.278,1030.003,1223.641,1053.296,1261.332z"/>
							
								<linearGradient id="SVGID_00000153678017534196614440000012549877310893548477_" gradientUnits="userSpaceOnUse" x1="-5223.5156" y1="-4195.0928" x2="-4983.7124" y2="-4195.0928" gradientTransform="matrix(0.8506 -0.5257 0.5257 0.8506 7571.9932 2240.2207)">
								<stop  offset="0" style="stop-color:#2B3582"/>
								<stop  offset="1" style="stop-color:#150E42"/>
							</linearGradient>
							<path style="fill:url(#SVGID_00000153678017534196614440000012549877310893548477_);" d="M971.779,1310.247
								c-2.627,3.596-3.447,8.175-2.223,12.457l23.969,83.896c0.364,1.273,0.882,2.474,1.584,3.597
								c3.872,6.187,17.783,24.895,36.535,9.535c15.983-13.092,30.853-24.904,44.181-27.845c7.783-1.719,15.428,3.371,17.052,11.174
								c3.345,16.073,9.441,48.642,10.793,78.338c0.339,7.443-5.177,13.857-12.571,14.77c-19.513,2.41-57.759,5.976-89.771,1.956
								c-5.259-0.659-9.705-4.145-11.614-9.089c-8.401-21.756-32.196-82.641-41.558-98.795
								c-8.698-15.007-31.799-16.424-42.43-16.235c-4.036,0.072-7.887-1.517-10.686-4.424c-8.397-8.718-21.845-28.427,0.964-49.571
								c5.672-5.257,5.904-14.223,0.764-20.001c-9.208-10.354-17.638-27.414-0.082-46.671c17.773-19.494,39.214-15.921,52.98-10.365
								c6.091,2.459,13.37,0.871,17.359-4.346c1.774-2.321,4.495-3.975,8.666-3.717c7.865,0.487,14.591-5.021,15.13-12.883
								c0.925-13.481,7.278-29.612,30.743-35.37c43.036-10.561,66.876,31.85,67.623,62.454
								c0.746,30.605-46.563,39.401-73.839,35.672C995.314,1282.043,979.019,1300.341,971.779,1310.247z"/>
							
								<linearGradient id="SVGID_00000075150688108605634630000010130592314196783753_" gradientUnits="userSpaceOnUse" x1="-1274.3153" y1="1983.171" x2="-1709.4874" y2="2194.6567" gradientTransform="matrix(-0.9451 0.3269 0.3269 0.9451 -1181.1458 -92.6297)">
								<stop  offset="0" style="stop-color:#F9B776"/>
								<stop  offset="1" style="stop-color:#F47960"/>
							</linearGradient>
							<path style="fill:url(#SVGID_00000075150688108605634630000010130592314196783753_);" d="M962.868,1422.069
								c0,0-9.136-54.191-30.964-58.125c-21.829-3.935-44.334,12.825-24.29,43.828
								C932.548,1446.336,962.868,1422.069,962.868,1422.069z"/>
						</g>
					</g>
					<g>
						
							<linearGradient id="SVGID_00000103255468050257959870000011809963004760863896_" gradientUnits="userSpaceOnUse" x1="-1521.397" y1="2279.6465" x2="-1136.5549" y2="2546.4946" gradientTransform="matrix(-0.9999 -0.0105 -0.0105 0.9999 -543.5361 -1035.2291)">
							<stop  offset="0" style="stop-color:#F9B776"/>
							<stop  offset="1" style="stop-color:#F47960"/>
						</linearGradient>
						<path style="fill:url(#SVGID_00000103255468050257959870000011809963004760863896_);" d="M926.866,1227.109
							c3.807-0.156,7.941,0.206,12.497,1.172c10.378,2.198,24.203,7.533,20.602,17.514c-5.407,14.99-33.463,0.984-48.4,25.152
							c-13.163,21.296-2.389,44.423-6.417,67.372c-1.96,11.164-9.133,27.742-19.107,34.263c-4.46,2.916-39.684,8.495-41.61,2.244
							c0,0-9.787-31.764-9.791-31.775c-8.806-28.579,25.028-76.199,42.479-95.452
							C890.603,1232.724,908.873,1227.845,926.866,1227.109z"/>
						<g>
							
								<linearGradient id="SVGID_00000107575344434931982240000012383810934660773309_" gradientUnits="userSpaceOnUse" x1="-1513.5652" y1="2271.9189" x2="-1113.2211" y2="2549.5161" gradientTransform="matrix(-0.9999 -0.0105 -0.0105 0.9999 -543.5361 -1035.2291)">
								<stop  offset="0" style="stop-color:#F9B776"/>
								<stop  offset="1" style="stop-color:#F47960"/>
							</linearGradient>
							<path style="fill:url(#SVGID_00000107575344434931982240000012383810934660773309_);" d="M893.479,1341.805l-33.693,28.048
								c-64.609,27.478-111.548,59.859-145.565,94.891c-12.317-23.17-32.257-49.954-64.045-70.849
								c65.125-32.079,113.605-45.406,113.605-45.406C895.215,1295.631,893.479,1341.805,893.479,1341.805z"/>
							
								<linearGradient id="SVGID_00000107554328795578961780000009088358619947129018_" gradientUnits="userSpaceOnUse" x1="209.1355" y1="2112.4346" x2="974.8273" y2="1074.816">
								<stop  offset="0" style="stop-color:#A737D5"/>
								<stop  offset="1" style="stop-color:#EF497A"/>
							</linearGradient>
							<path style="fill:url(#SVGID_00000107554328795578961780000009088358619947129018_);" d="M714.22,1464.744
								c-106.218,109.385-75.179,53.8-76.024,147.035c-0.315,34.762-30.482,167.495-30.482,167.495
								c-324.844-140.331-53.755-331.881,42.462-385.38C681.963,1414.79,701.903,1441.574,714.22,1464.744z"/>
						</g>
					</g>
				</g>
			</g>
		</g>
	</g>
</g>
</svg>
